<svg id="svg" xmlns="http://www.w3.org/2000/svg" xmlns:xlink="http://www.w3.org/1999/xlink" width="400" height="400" viewBox="0, 0, 400,400" version="1.1"><g id="svgg"><path id="path0" d="M189.573 42.435 C 185.511 44.854,181.323 49.282,181.835 50.617 C 182.136 51.400,181.981 51.624,181.392 51.259 C 180.782 50.882,180.654 51.137,181.001 52.041 C 181.286 52.783,181.195 53.183,180.797 52.937 C 179.927 52.399,179.863 52.932,179.111 67.032 C 178.550 77.560,178.606 78.306,180.078 79.960 C 180.938 80.925,181.334 81.258,180.959 80.701 C 180.584 80.144,180.479 79.688,180.726 79.688 C 180.973 79.688,182.315 81.357,183.709 83.398 C 185.104 85.442,185.591 86.583,184.793 85.938 C 183.426 84.833,183.404 84.863,184.406 86.473 C 184.991 87.412,185.733 88.017,186.055 87.818 C 186.923 87.281,188.443 90.513,187.806 91.543 C 187.482 92.068,187.606 92.214,188.111 91.902 C 189.207 91.225,196.415 104.318,195.638 105.575 C 195.257 106.190,195.411 106.281,196.106 105.852 C 196.863 105.384,197.003 105.571,196.626 106.553 C 196.328 107.330,196.428 107.698,196.864 107.429 C 197.850 106.819,215.853 142.811,215.292 144.272 C 215.055 144.889,215.144 145.219,215.488 145.007 C 215.833 144.794,217.282 146.973,218.710 149.849 C 222.401 157.285,223.641 160.375,222.705 159.796 C 222.218 159.495,222.079 159.778,222.356 160.502 C 222.611 161.166,223.081 161.549,223.399 161.352 C 224.314 160.787,227.611 168.467,226.928 169.571 C 226.573 170.146,226.639 170.358,227.086 170.081 C 227.507 169.821,228.616 171.182,229.551 173.106 C 231.385 176.882,231.656 178.563,230.542 179.252 C 230.152 179.493,229.980 178.898,230.160 177.931 C 230.339 176.963,230.277 176.611,230.022 177.148 C 229.766 177.686,229.038 178.125,228.404 178.125 C 227.770 178.125,227.469 178.477,227.734 178.906 C 228.000 179.336,228.026 179.687,227.792 179.687 C 226.895 179.687,222.573 170.093,222.986 169.019 C 223.224 168.397,223.132 168.065,222.781 168.282 C 221.803 168.887,216.874 158.170,217.594 157.006 C 217.955 156.421,217.896 156.203,217.451 156.477 C 216.378 157.141,208.992 141.877,209.775 140.611 C 210.136 140.025,210.086 139.795,209.655 140.061 C 208.691 140.657,194.326 111.902,195.023 110.773 C 195.337 110.266,195.195 110.136,194.678 110.456 C 193.595 111.125,188.770 101.886,189.547 100.629 C 189.852 100.135,189.734 99.976,189.273 100.261 C 188.811 100.546,186.897 97.979,184.846 94.327 C 179.916 85.546,175.897 80.412,172.431 78.468 C 170.830 77.569,169.667 76.685,169.847 76.503 C 170.934 75.405,156.946 75.785,154.764 76.914 C 151.773 78.460,151.526 77.837,154.492 76.228 C 155.674 75.587,156.254 75.048,155.781 75.031 C 154.705 74.992,148.800 79.227,147.999 80.612 C 147.672 81.178,148.428 80.762,149.679 79.688 L 151.953 77.734 150.012 80.078 C 147.193 83.481,146.555 84.145,147.197 83.008 C 147.500 82.471,147.564 82.031,147.339 82.031 C 147.114 82.031,146.531 82.777,146.043 83.688 C 145.455 84.788,145.438 85.171,145.992 84.828 C 146.461 84.538,146.293 85.782,145.609 87.664 C 143.355 93.862,143.922 101.800,147.205 110.004 C 148.788 113.962,149.835 117.604,149.531 118.096 C 149.218 118.602,149.320 118.780,149.765 118.505 C 150.198 118.237,150.956 118.902,151.448 119.983 C 152.546 122.391,152.572 122.890,151.571 122.271 C 151.129 121.998,150.997 122.310,151.263 123.002 C 151.518 123.666,152.000 124.040,152.335 123.834 C 153.230 123.280,154.939 127.868,154.251 128.980 C 153.906 129.538,153.991 129.727,154.458 129.439 C 155.503 128.793,158.163 134.738,157.389 135.990 C 157.028 136.574,157.111 136.762,157.595 136.462 C 158.054 136.179,159.318 138.060,160.532 140.834 C 163.647 147.953,163.656 147.980,162.642 147.353 C 162.051 146.988,161.898 147.214,162.200 148.002 C 162.455 148.666,162.974 149.018,163.354 148.783 C 163.734 148.548,163.843 148.881,163.598 149.521 C 163.352 150.162,163.548 151.323,164.034 152.101 C 164.793 153.315,164.844 153.239,164.393 151.563 C 163.518 148.304,164.423 149.976,168.706 159.526 C 171.024 164.693,172.550 169.072,172.219 169.607 C 171.880 170.155,171.961 170.352,172.410 170.074 C 173.435 169.441,183.128 191.045,182.369 192.272 C 182.031 192.820,182.120 193.006,182.583 192.720 C 183.628 192.074,186.288 198.020,185.514 199.272 C 185.163 199.840,185.236 200.043,185.691 199.762 C 186.722 199.125,193.297 213.681,192.535 214.914 C 192.182 215.484,192.272 215.665,192.757 215.365 C 193.796 214.723,195.655 219.127,194.876 220.386 C 194.537 220.935,194.616 221.133,195.064 220.857 C 195.490 220.594,196.839 222.473,198.063 225.033 C 200.570 230.279,200.457 230.191,202.219 228.283 C 202.932 227.511,203.164 227.423,202.734 228.088 C 202.061 229.130,202.136 229.154,203.274 228.263 C 204.000 227.695,204.429 226.799,204.227 226.273 C 204.025 225.746,204.837 224.454,206.032 223.400 L 208.203 221.484 206.250 223.828 L 204.297 226.172 206.389 224.331 C 207.539 223.318,208.318 222.066,208.119 221.547 C 207.920 221.029,208.561 219.924,209.543 219.091 L 211.328 217.578 209.766 219.531 L 208.203 221.484 209.908 220.044 C 210.846 219.251,211.440 218.151,211.227 217.597 C 211.013 217.038,214.594 212.799,219.288 208.053 C 224.496 202.789,225.329 202.079,221.461 206.203 C 218.010 209.881,214.319 213.944,213.258 215.232 C 212.196 216.520,214.953 213.806,219.384 209.202 C 223.943 204.464,229.910 199.209,233.130 197.095 C 236.260 195.040,239.490 192.915,240.309 192.372 C 241.127 191.828,240.654 191.925,239.258 192.587 C 237.861 193.249,236.719 193.610,236.719 193.391 C 236.719 193.171,238.916 191.917,241.602 190.604 C 244.287 189.291,245.802 188.759,244.968 189.421 C 244.134 190.083,243.108 190.625,242.689 190.625 C 242.270 190.625,242.116 190.814,242.347 191.045 C 242.920 191.618,246.875 189.760,246.875 188.918 C 246.875 188.266,248.333 187.569,252.246 186.349 C 253.522 185.951,253.935 186.041,253.567 186.635 C 253.261 187.131,253.572 187.500,254.297 187.500 C 254.992 187.500,255.350 187.159,255.092 186.742 C 253.419 184.034,269.793 184.870,276.239 187.821 C 295.076 196.445,301.009 217.374,292.143 243.926 C 289.704 251.231,286.609 257.837,285.847 257.366 C 285.477 257.137,285.406 257.553,285.689 258.291 C 286.035 259.194,285.908 259.449,285.298 259.072 C 284.688 258.695,284.561 258.950,284.907 259.853 C 285.254 260.757,285.127 261.011,284.517 260.634 C 283.907 260.257,283.779 260.512,284.126 261.416 C 284.503 262.397,284.363 262.585,283.606 262.117 C 282.927 261.697,282.758 261.780,283.114 262.356 C 283.413 262.840,283.107 264.300,282.434 265.602 C 281.029 268.319,279.979 268.866,281.266 266.211 C 282.073 264.545,282.055 264.530,280.927 265.935 C 280.273 266.751,279.916 267.707,280.135 268.061 C 280.734 269.030,278.170 273.557,277.319 273.032 C 276.913 272.781,276.776 273.085,277.015 273.709 C 277.255 274.332,277.020 275.108,276.495 275.432 C 275.844 275.835,275.741 275.697,276.172 275.000 C 276.581 274.338,276.498 274.166,275.936 274.514 C 275.459 274.809,275.222 275.478,275.411 276.002 C 275.599 276.525,275.026 277.832,274.137 278.906 C 273.248 279.980,272.748 280.420,273.025 279.883 C 273.959 278.076,272.965 278.886,271.108 281.445 L 269.266 283.984 271.084 282.422 C 272.084 281.563,271.065 283.402,268.820 286.510 C 266.575 289.618,264.322 292.410,263.814 292.715 C 263.306 293.019,263.412 292.586,264.049 291.752 C 265.191 290.255,265.183 290.255,263.463 291.723 C 261.676 293.247,261.102 294.224,262.500 293.359 C 264.159 292.334,263.175 294.353,261.138 296.153 L 258.996 298.047 260.547 296.094 L 262.098 294.141 259.955 296.035 C 257.816 297.925,257.116 298.960,258.594 298.047 C 260.670 296.764,258.975 299.269,255.665 302.376 L 251.955 305.859 255.079 302.344 L 258.203 298.828 254.945 301.856 C 253.153 303.521,251.852 305.315,252.055 305.843 C 252.426 306.811,241.422 317.665,232.538 325.093 C 229.321 327.782,229.799 327.211,233.984 323.365 C 237.422 320.205,242.871 315.015,246.094 311.830 C 249.402 308.560,248.041 309.625,242.969 314.274 C 238.027 318.804,231.348 324.685,228.125 327.345 C 222.277 332.170,219.308 334.922,222.266 332.775 C 223.707 331.729,223.745 331.746,222.763 332.999 C 222.177 333.746,221.413 334.182,221.064 333.966 C 220.023 333.323,206.600 342.466,206.701 343.750 C 206.923 346.578,207.078 346.938,207.860 346.455 C 209.033 345.730,213.365 347.669,212.760 348.649 C 212.476 349.108,212.636 349.227,213.127 348.924 C 213.604 348.628,217.614 349.597,222.037 351.076 C 226.459 352.555,231.425 354.017,233.070 354.325 C 234.716 354.633,236.248 355.368,236.474 355.958 C 236.701 356.548,237.639 357.026,238.560 357.019 C 239.962 357.009,240.044 356.870,239.063 356.164 C 238.069 355.449,238.095 355.387,239.238 355.754 C 239.979 355.991,243.671 356.627,247.441 357.166 C 252.928 357.950,253.829 358.250,251.953 358.668 L 249.609 359.190 252.148 359.283 C 253.545 359.333,254.688 359.102,254.688 358.768 C 254.688 358.435,256.182 358.328,258.008 358.532 L 261.328 358.902 258.594 359.426 C 256.223 359.881,256.430 359.957,260.156 359.998 C 263.341 360.034,264.049 359.862,262.891 359.333 C 261.868 358.866,262.946 358.792,266.016 359.120 C 271.541 359.709,270.841 359.709,277.734 359.128 C 281.228 358.833,282.357 358.902,280.859 359.319 C 278.850 359.878,279.129 359.977,282.813 360.009 C 285.732 360.034,286.608 359.844,285.547 359.416 C 284.328 358.924,284.843 358.666,287.891 358.240 C 290.039 357.940,294.323 357.089,297.410 356.348 C 300.498 355.607,302.850 355.281,302.638 355.625 C 302.425 355.969,302.820 356.250,303.516 356.250 C 304.211 356.250,304.598 355.955,304.375 355.595 C 304.152 355.235,306.856 353.846,310.383 352.509 C 313.911 351.172,316.114 350.588,315.280 351.211 C 314.446 351.834,314.169 352.344,314.664 352.344 C 315.159 352.344,316.193 351.681,316.962 350.872 C 318.361 349.398,331.250 342.606,331.250 343.342 C 331.250 343.557,328.174 345.301,324.414 347.218 C 320.654 349.134,317.930 350.715,318.359 350.730 C 325.137 350.976,369.095 317.906,367.503 313.759 C 367.299 313.227,367.936 312.111,368.918 311.279 L 370.703 309.766 369.141 311.719 L 367.578 313.672 369.283 312.231 C 370.221 311.439,370.812 310.332,370.597 309.771 C 370.382 309.211,370.636 308.486,371.161 308.161 C 371.812 307.759,371.915 307.897,371.484 308.594 C 371.063 309.276,371.157 309.428,371.767 309.051 C 372.270 308.740,372.484 308.166,372.242 307.775 C 371.621 306.770,373.363 303.768,374.249 304.316 C 374.663 304.571,374.758 304.185,374.468 303.428 C 374.121 302.525,374.248 302.270,374.858 302.647 C 375.468 303.024,375.596 302.769,375.249 301.866 C 374.902 300.962,375.030 300.707,375.640 301.084 C 376.249 301.461,376.377 301.206,376.030 300.303 C 375.654 299.321,375.793 299.134,376.550 299.602 C 377.211 300.010,377.398 299.938,377.067 299.403 C 376.782 298.943,377.614 295.388,378.915 291.504 C 388.808 261.975,384.836 228.962,364.807 174.251 C 344.003 117.425,333.527 89.410,331.570 85.372 C 326.805 75.538,314.941 70.896,306.168 75.433 C 303.287 76.923,303.183 76.223,306.055 74.666 C 307.236 74.025,307.842 73.486,307.400 73.469 C 305.469 73.394,296.627 80.998,297.328 82.131 C 297.541 82.477,296.969 84.222,296.057 86.010 C 292.433 93.112,292.744 94.973,301.581 119.141 C 310.671 143.997,310.690 144.053,309.066 141.406 C 307.538 138.915,307.486 139.692,308.954 143.074 C 309.582 144.520,310.128 145.176,310.168 144.531 C 310.242 143.353,312.606 148.702,313.621 152.344 C 314.060 153.921,313.990 154.071,313.259 153.125 C 312.490 152.131,312.423 152.170,312.817 153.384 C 313.072 154.171,313.287 155.226,313.293 155.728 C 313.301 156.331,313.528 156.289,313.961 155.606 C 314.589 154.615,320.313 168.933,320.313 171.497 C 320.313 173.304,318.709 173.671,317.462 172.149 C 316.322 170.756,316.297 170.761,316.779 172.266 C 317.109 173.295,317.018 173.562,316.511 173.047 C 316.087 172.617,309.541 155.250,301.963 134.453 C 284.605 86.817,276.247 64.379,273.803 58.854 C 272.749 56.470,272.066 54.230,272.284 53.876 C 272.503 53.522,272.270 52.979,271.767 52.668 C 271.157 52.291,271.063 52.443,271.484 53.125 C 271.915 53.822,271.812 53.960,271.161 53.557 C 270.636 53.233,270.389 52.491,270.612 51.910 C 272.868 46.030,248.435 42.322,243.421 47.783 C 241.914 49.423,241.910 49.463,243.359 48.332 C 244.219 47.661,245.449 46.857,246.094 46.545 C 246.738 46.233,246.211 46.793,244.922 47.789 C 243.633 48.784,241.547 50.656,240.286 51.948 C 239.026 53.240,238.498 53.594,239.114 52.734 C 240.146 51.295,240.127 51.256,238.876 52.237 C 238.129 52.823,237.702 53.602,237.929 53.968 C 238.155 54.334,237.617 56.051,236.734 57.783 C 233.970 63.200,233.861 67.417,236.297 74.609 C 236.655 75.664,236.437 75.537,235.629 74.219 C 234.209 71.905,234.003 72.547,235.270 75.329 C 235.763 76.410,236.432 77.131,236.756 76.930 C 237.761 76.309,269.531 158.672,269.531 161.897 C 269.531 162.608,269.230 163.375,268.863 163.602 C 268.495 163.829,268.307 163.059,268.444 161.890 C 268.582 160.722,268.500 160.407,268.263 161.190 C 267.995 162.075,267.381 162.442,266.642 162.158 C 265.757 161.818,265.586 162.055,265.975 163.077 C 266.302 163.935,266.228 164.159,265.780 163.672 C 265.385 163.242,261.275 152.695,256.645 140.234 C 246.891 113.978,236.809 88.116,231.178 74.906 C 229.009 69.817,227.489 65.241,227.800 64.737 C 228.116 64.226,228.031 64.028,227.607 64.291 C 226.748 64.821,222.407 56.504,223.023 55.508 C 223.241 55.154,222.809 54.385,222.062 53.799 C 220.804 52.813,220.790 52.850,221.875 54.297 C 222.969 55.755,222.953 55.786,221.644 54.758 C 220.873 54.152,220.415 53.204,220.627 52.651 C 221.068 51.501,213.530 44.329,209.866 42.414 C 206.131 40.461,192.864 40.475,189.573 42.435 M193.685 41.698 C 192.887 42.411,188.281 44.532,188.281 44.186 C 188.281 43.700,192.332 41.480,193.294 41.438 C 193.688 41.420,193.864 41.537,193.685 41.698 M140.859 44.394 C 141.961 44.845,141.586 45.150,139.126 45.807 C 137.266 46.303,136.175 46.342,136.448 45.901 C 137.204 44.676,134.166 46.599,131.598 48.969 C 130.285 50.181,129.900 50.645,130.741 50.000 C 131.715 49.255,131.382 50.069,129.827 52.238 C 128.483 54.114,125.231 61.145,122.600 67.863 C 118.016 79.569,116.391 83.101,117.518 78.906 C 117.883 77.550,117.822 77.311,117.319 78.125 C 116.206 79.927,115.312 83.504,116.343 82.031 C 117.760 80.008,117.290 81.608,113.674 91.135 C 111.741 96.226,110.134 100.918,110.103 101.563 C 110.066 102.334,109.841 102.208,109.444 101.194 C 108.902 99.806,108.802 99.862,108.440 101.756 C 108.218 102.916,108.356 103.663,108.747 103.421 C 109.136 103.180,108.965 104.158,108.365 105.593 C 107.765 107.029,104.687 115.314,101.524 124.005 C 98.361 132.696,95.542 139.434,95.260 138.978 C 94.968 138.505,94.565 138.848,94.322 139.779 C 94.087 140.675,94.214 141.211,94.604 140.971 C 95.618 140.344,95.976 139.266,87.854 161.326 C 81.082 179.719,78.597 185.785,80.014 180.469 L 80.534 178.516 79.448 180.365 C 78.221 182.455,77.008 180.939,77.813 178.320 C 78.044 177.568,77.694 177.832,77.035 178.906 C 74.954 182.299,75.460 180.834,91.099 138.222 C 107.949 92.310,107.692 93.357,103.920 85.964 C 103.020 84.201,102.459 82.477,102.672 82.131 C 103.373 80.998,94.531 73.394,92.600 73.469 C 92.158 73.486,92.764 74.025,93.945 74.666 C 95.127 75.307,96.094 76.005,96.094 76.217 C 96.094 76.429,94.951 75.989,93.555 75.238 C 89.263 72.932,81.434 73.397,76.849 76.232 C 71.041 79.823,68.763 83.566,62.946 99.072 C 60.019 106.874,57.403 113.120,57.132 112.953 C 56.862 112.786,56.634 113.407,56.625 114.332 C 56.601 116.870,36.445 171.134,35.871 170.205 C 35.597 169.762,35.181 170.132,34.947 171.029 C 34.673 172.075,34.822 172.472,35.362 172.139 C 35.921 171.793,35.999 172.120,35.595 173.114 C 35.261 173.936,34.278 176.667,33.410 179.183 C 32.308 182.380,31.631 183.438,31.163 182.698 C 30.732 182.018,30.488 181.966,30.481 182.553 C 30.474 183.055,30.260 184.110,30.004 184.897 C 29.618 186.087,29.682 186.131,30.383 185.156 C 31.807 183.177,31.381 184.701,27.755 194.562 C 24.543 203.295,20.313 218.501,20.312 221.312 C 20.312 221.959,19.785 222.691,19.141 222.939 C 18.496 223.186,18.004 224.191,18.047 225.171 C 18.123 226.917,18.139 226.914,18.817 225.000 C 19.384 223.402,19.432 223.545,19.081 225.781 C 14.940 252.149,15.646 275.271,21.087 291.512 C 22.387 295.391,23.218 298.943,22.933 299.403 C 22.602 299.938,22.789 300.010,23.450 299.602 C 24.207 299.134,24.346 299.321,23.970 300.303 C 23.623 301.206,23.751 301.461,24.360 301.084 C 24.970 300.707,25.098 300.962,24.751 301.866 C 24.404 302.769,24.532 303.024,25.142 302.647 C 25.752 302.270,25.879 302.525,25.532 303.428 C 25.242 304.185,25.337 304.571,25.751 304.316 C 26.154 304.066,26.911 304.663,27.432 305.642 C 28.322 307.312,28.292 307.350,26.945 306.250 C 25.554 305.115,25.553 305.147,26.907 307.227 C 28.228 309.257,29.629 310.395,28.441 308.473 C 28.091 307.907,28.227 307.783,28.806 308.141 C 29.314 308.455,29.632 309.292,29.513 310.002 C 29.394 310.712,29.648 311.306,30.078 311.323 C 31.585 311.379,32.915 312.668,32.522 313.692 C 30.890 317.945,74.986 351.138,81.741 350.741 C 82.116 350.719,78.994 348.958,74.805 346.827 C 70.615 344.697,67.187 342.778,67.187 342.563 C 67.187 342.349,70.615 343.875,74.805 345.955 C 78.994 348.035,84.531 350.551,87.109 351.547 C 89.688 352.544,92.187 353.833,92.664 354.414 C 93.650 355.613,94.866 355.861,94.160 354.719 C 93.867 354.244,94.495 354.230,95.872 354.681 C 97.068 355.072,99.552 355.778,101.391 356.248 C 103.230 356.719,104.528 357.439,104.274 357.849 C 104.021 358.259,104.626 358.588,105.618 358.582 C 107.102 358.572,107.214 358.424,106.250 357.749 C 105.293 357.080,105.365 356.998,106.641 357.305 C 107.500 357.512,109.961 357.930,112.109 358.233 C 115.160 358.665,115.673 358.924,114.453 359.416 C 113.395 359.843,114.277 360.031,117.188 359.998 C 120.821 359.958,121.062 359.875,118.750 359.458 C 117.246 359.188,121.269 358.970,127.690 358.975 C 134.110 358.980,138.329 359.206,137.065 359.478 C 135.392 359.837,135.937 359.975,139.063 359.986 C 142.085 359.996,142.780 359.833,141.406 359.437 C 139.996 359.031,141.626 358.604,147.266 357.902 C 154.379 357.018,169.200 354.044,173.047 352.730 C 174.307 352.300,174.382 352.360,173.438 353.039 C 172.493 353.719,172.476 353.885,173.351 353.894 C 173.949 353.901,174.827 353.436,175.304 352.861 C 176.338 351.616,185.446 348.118,184.758 349.230 C 184.497 349.654,184.655 350.000,185.110 350.000 C 185.565 350.000,185.938 349.657,185.938 349.239 C 185.938 348.109,190.588 345.912,191.908 346.419 C 192.548 346.664,192.840 346.517,192.573 346.085 C 192.310 345.660,192.446 345.312,192.874 345.313 C 195.664 345.313,192.424 341.911,184.952 336.995 C 180.285 333.924,177.104 332.151,177.882 333.055 C 178.660 333.959,177.803 333.542,175.977 332.127 C 174.150 330.713,172.656 329.355,172.656 329.110 C 172.656 328.865,173.359 329.300,174.219 330.078 C 175.078 330.856,175.781 331.292,175.781 331.048 C 175.781 330.804,173.584 328.776,170.898 326.541 C 157.637 315.507,136.426 294.969,141.585 298.157 C 142.112 298.483,141.003 296.922,139.119 294.688 C 134.832 289.604,133.985 289.366,137.865 294.336 L 140.762 298.047 137.194 294.141 C 133.711 290.328,132.608 288.394,134.570 289.541 C 135.107 289.855,134.877 289.349,134.059 288.416 C 132.284 286.392,131.380 286.133,132.912 288.086 C 133.890 289.333,133.861 289.356,132.582 288.351 C 131.810 287.745,131.355 286.790,131.571 286.228 C 131.787 285.666,131.572 284.965,131.095 284.670 C 130.570 284.345,130.447 284.489,130.785 285.036 C 131.091 285.532,131.163 285.937,130.943 285.937 C 130.098 285.937,125.720 278.856,126.143 278.172 C 126.388 277.776,126.176 277.197,125.673 276.886 C 125.063 276.510,124.969 276.662,125.391 277.344 C 125.821 278.041,125.719 278.178,125.067 277.776 C 124.542 277.451,124.297 276.705,124.522 276.118 C 124.747 275.531,124.541 274.809,124.064 274.514 C 123.507 274.170,123.400 274.371,123.765 275.075 C 124.078 275.678,123.757 275.469,123.051 274.609 C 120.437 271.427,116.310 263.287,116.860 262.397 C 117.243 261.779,117.090 261.687,116.394 262.117 C 115.637 262.585,115.497 262.397,115.874 261.416 C 116.221 260.512,116.093 260.257,115.483 260.634 C 114.873 261.011,114.746 260.757,115.093 259.853 C 115.439 258.950,115.312 258.695,114.702 259.072 C 114.092 259.449,113.965 259.194,114.311 258.291 C 114.594 257.553,114.523 257.137,114.153 257.366 C 113.783 257.594,112.584 255.767,111.487 253.305 C 100.410 228.428,101.464 205.657,114.226 194.124 L 116.797 191.800 114.412 194.533 C 110.052 199.531,109.715 200.436,113.726 196.379 C 115.904 194.176,118.804 191.796,120.171 191.089 C 121.538 190.382,122.656 189.602,122.656 189.356 C 122.656 189.110,121.405 189.647,119.875 190.549 C 118.345 191.452,117.315 191.831,117.586 191.393 C 118.356 190.148,125.456 186.762,128.708 186.089 C 132.175 185.371,130.869 188.702,141.481 153.516 L 149.256 127.734 144.897 117.292 C 137.236 98.937,137.423 86.931,145.510 78.085 C 146.905 76.558,147.520 75.993,146.875 76.829 C 146.068 77.875,146.711 77.644,148.935 76.088 C 150.713 74.845,152.036 73.605,151.875 73.333 C 151.297 72.355,156.532 70.820,160.643 70.762 C 162.948 70.730,164.836 70.419,164.839 70.071 C 164.842 69.723,165.136 69.620,165.494 69.841 C 166.618 70.536,164.748 60.688,163.168 57.591 C 162.338 55.965,161.845 54.334,162.071 53.968 C 162.298 53.602,161.871 52.823,161.124 52.237 C 159.870 51.254,159.853 51.292,160.909 52.734 C 161.538 53.594,160.659 52.979,158.956 51.369 C 157.253 49.758,155.156 47.886,154.297 47.209 C 152.643 45.906,154.233 46.514,156.288 47.970 C 156.954 48.442,156.665 48.032,155.646 47.059 C 154.627 46.086,153.475 45.487,153.086 45.727 C 152.698 45.967,151.053 45.831,149.432 45.425 C 145.496 44.440,139.086 43.669,140.859 44.394 M187.500 44.769 C 187.500 44.899,186.182 46.218,184.570 47.698 L 181.641 50.391 184.333 47.461 C 186.839 44.734,187.500 44.172,187.500 44.769 M217.578 49.219 C 219.256 50.938,220.454 52.344,220.239 52.344 C 220.024 52.344,218.475 50.938,216.797 49.219 C 215.119 47.500,213.921 46.094,214.136 46.094 C 214.351 46.094,215.900 47.500,217.578 49.219 M126.554 54.883 C 125.702 56.279,125.005 57.744,125.003 58.138 C 124.999 59.028,125.110 58.882,127.176 55.273 C 129.231 51.685,128.705 51.355,126.554 54.883 M163.825 57.412 C 164.539 58.911,165.262 59.998,165.432 59.828 C 165.789 59.471,163.418 54.688,162.883 54.688 C 162.686 54.688,163.110 55.914,163.825 57.412 M235.509 57.104 C 234.822 58.433,234.398 59.659,234.568 59.828 C 234.738 59.998,235.461 58.911,236.175 57.412 C 237.782 54.043,237.225 53.785,235.509 57.104 M225.543 60.537 C 226.258 62.036,226.981 63.123,227.151 62.953 C 227.508 62.596,225.137 57.813,224.602 57.813 C 224.405 57.813,224.829 59.039,225.543 60.537 M177.525 61.719 C 177.525 63.223,177.686 63.838,177.882 63.086 C 178.079 62.334,178.079 61.104,177.882 60.352 C 177.686 59.600,177.525 60.215,177.525 61.719 M232.994 66.406 C 232.994 67.910,233.155 68.525,233.351 67.773 C 233.548 67.021,233.548 65.791,233.351 65.039 C 233.155 64.287,232.994 64.902,232.994 66.406 M177.525 73.438 C 177.525 74.941,177.686 75.557,177.882 74.805 C 178.079 74.053,178.079 72.822,177.882 72.070 C 177.686 71.318,177.525 71.934,177.525 73.438 M76.541 74.727 C 73.610 76.685,69.500 80.669,68.605 82.422 C 68.166 83.281,68.965 82.616,70.380 80.943 C 71.796 79.270,74.538 76.897,76.474 75.670 C 78.410 74.442,79.651 73.438,79.233 73.438 C 78.815 73.438,77.603 74.018,76.541 74.727 M324.761 76.479 C 326.477 77.722,328.843 79.920,330.020 81.362 C 331.196 82.804,331.785 83.229,331.329 82.306 C 330.372 80.371,323.602 74.219,322.429 74.219 C 321.995 74.219,323.045 75.236,324.761 76.479 M100.000 79.297 C 101.458 80.801,102.474 82.031,102.260 82.031 C 102.045 82.031,100.676 80.801,99.219 79.297 C 97.761 77.793,96.744 76.563,96.959 76.563 C 97.174 76.563,98.542 77.793,100.000 79.297 M172.266 77.470 C 173.125 77.944,174.898 79.251,176.206 80.376 C 177.531 81.516,177.285 81.124,175.651 79.492 C 174.037 77.881,172.264 76.573,171.710 76.586 C 171.156 76.599,171.406 76.997,172.266 77.470 M303.125 76.800 C 303.125 76.930,301.807 78.249,300.195 79.730 L 297.266 82.422 299.958 79.492 C 302.464 76.765,303.125 76.203,303.125 76.800 M143.741 81.445 C 142.890 82.842,142.192 84.307,142.190 84.701 C 142.187 85.591,142.298 85.445,144.364 81.836 C 146.418 78.248,145.892 77.918,143.741 81.445 M107.213 94.531 C 107.213 96.035,107.373 96.650,107.570 95.898 C 107.766 95.146,107.766 93.916,107.570 93.164 C 107.373 92.412,107.213 93.027,107.213 94.531 M292.369 94.531 C 292.369 96.035,292.530 96.650,292.726 95.898 C 292.923 95.146,292.923 93.916,292.726 93.164 C 292.530 92.412,292.369 93.027,292.369 94.531 M140.067 96.484 C 140.073 98.633,140.225 99.419,140.404 98.231 C 140.584 97.044,140.579 95.286,140.394 94.325 C 140.208 93.364,140.061 94.336,140.067 96.484 M192.188 100.000 C 193.064 101.719,193.958 103.125,194.172 103.125 C 194.387 103.125,193.846 101.719,192.969 100.000 C 192.092 98.281,191.199 96.875,190.984 96.875 C 190.769 96.875,191.311 98.281,192.188 100.000 M191.797 105.469 C 192.463 106.758,193.185 107.813,193.400 107.813 C 193.614 107.813,193.245 106.758,192.578 105.469 C 191.912 104.180,191.190 103.125,190.975 103.125 C 190.761 103.125,191.130 104.180,191.797 105.469 M198.828 112.500 C 199.917 114.648,200.983 116.406,201.198 116.406 C 201.413 116.406,200.698 114.648,199.609 112.500 C 198.521 110.352,197.454 108.594,197.239 108.594 C 197.024 108.594,197.739 110.352,198.828 112.500 M207.890 130.078 C 207.890 130.508,209.261 133.496,210.938 136.719 C 212.614 139.941,213.985 142.227,213.985 141.797 C 213.985 141.367,212.614 138.379,210.938 135.156 C 209.261 131.934,207.890 129.648,207.890 130.078 M151.206 138.086 C 149.302 145.867,147.403 150.864,146.724 149.884 C 146.216 149.152,146.144 149.369,146.487 150.590 C 146.801 151.706,145.247 158.049,142.241 167.918 C 136.442 186.958,136.458 186.754,140.820 186.608 L 144.141 186.497 141.016 185.938 C 138.229 185.439,138.148 185.366,140.266 185.267 C 143.485 185.117,151.768 187.311,152.734 188.570 C 153.802 189.962,157.062 191.636,157.619 191.079 C 157.869 190.829,157.730 190.625,157.311 190.625 C 156.892 190.625,155.866 190.083,155.032 189.421 C 154.198 188.759,155.713 189.291,158.398 190.604 C 161.084 191.917,163.281 193.174,163.281 193.398 C 163.281 193.622,162.490 193.393,161.523 192.890 C 158.639 191.390,160.322 192.727,165.654 196.174 C 168.410 197.955,170.184 198.833,169.597 198.126 C 168.692 197.035,168.695 196.902,169.616 197.255 C 170.403 197.555,171.361 195.741,173.088 190.681 C 174.400 186.837,175.245 183.833,174.966 184.005 C 174.101 184.540,170.860 176.792,171.509 175.741 C 171.873 175.152,171.799 174.955,171.324 175.249 C 170.279 175.894,167.618 169.949,168.392 168.697 C 168.749 168.120,168.671 167.926,168.199 168.217 C 167.154 168.863,164.493 162.918,165.267 161.666 C 165.625 161.087,165.546 160.894,165.071 161.188 C 164.034 161.829,155.922 143.350,156.694 142.102 C 157.032 141.555,156.943 141.369,156.480 141.655 C 156.044 141.924,155.057 140.748,154.287 139.041 C 152.638 135.383,151.922 135.161,151.206 138.086 M212.565 146.484 C 212.565 146.914,213.239 148.496,214.063 150.000 C 214.886 151.504,215.560 152.383,215.560 151.953 C 215.560 151.523,214.886 149.941,214.063 148.438 C 213.239 146.934,212.565 146.055,212.565 146.484 M217.258 149.609 C 217.258 150.039,218.105 151.973,219.141 153.906 C 220.176 155.840,221.023 157.070,221.023 156.641 C 221.023 156.211,220.176 154.277,219.141 152.344 C 218.105 150.410,217.258 149.180,217.258 149.609 M160.212 150.391 C 160.212 150.820,160.714 152.051,161.328 153.125 C 161.942 154.199,162.445 154.727,162.445 154.297 C 162.445 153.867,161.942 152.637,161.328 151.563 C 160.714 150.488,160.212 149.961,160.212 150.391 M219.587 161.328 C 219.587 161.758,220.089 162.988,220.703 164.063 C 221.317 165.137,221.820 165.664,221.820 165.234 C 221.820 164.805,221.317 163.574,220.703 162.500 C 220.089 161.426,219.587 160.898,219.587 161.328 M223.493 162.891 C 223.493 163.320,223.995 164.551,224.609 165.625 C 225.223 166.699,225.726 167.227,225.726 166.797 C 225.726 166.367,225.223 165.137,224.609 164.063 C 223.995 162.988,223.493 162.461,223.493 162.891 M140.290 169.196 C 140.003 170.341,139.918 171.429,140.103 171.613 C 140.287 171.797,140.672 171.011,140.960 169.866 C 141.247 168.721,141.332 167.634,141.147 167.450 C 140.963 167.265,140.578 168.051,140.290 169.196 M172.712 171.484 C 172.712 171.914,173.214 173.145,173.828 174.219 C 174.442 175.293,174.945 175.820,174.945 175.391 C 174.945 174.961,174.442 173.730,173.828 172.656 C 173.214 171.582,172.712 171.055,172.712 171.484 M227.399 171.484 C 227.399 171.914,227.902 173.145,228.516 174.219 C 229.130 175.293,229.632 175.820,229.632 175.391 C 229.632 174.961,229.130 173.730,228.516 172.656 C 227.902 171.582,227.399 171.055,227.399 171.484 M175.837 178.516 C 175.837 178.945,176.339 180.176,176.953 181.250 C 177.567 182.324,178.070 182.852,178.070 182.422 C 178.070 181.992,177.567 180.762,176.953 179.688 C 176.339 178.613,175.837 178.086,175.837 178.516 M178.962 185.547 C 178.962 185.977,179.464 187.207,180.078 188.281 C 180.692 189.355,181.195 189.883,181.195 189.453 C 181.195 189.023,180.692 187.793,180.078 186.719 C 179.464 185.645,178.962 185.117,178.962 185.547 M259.180 186.510 C 261.006 186.674,263.994 186.674,265.820 186.510 C 267.646 186.345,266.152 186.210,262.500 186.210 C 258.848 186.210,257.354 186.345,259.180 186.510 M269.596 186.999 C 269.775 187.154,270.977 187.516,272.266 187.804 C 273.977 188.187,274.293 188.115,273.438 187.536 C 272.383 186.822,268.812 186.323,269.596 186.999 M278.396 190.324 C 280.479 191.408,283.974 194.116,286.162 196.343 C 288.742 198.968,289.534 199.517,288.415 197.905 C 285.831 194.185,277.578 188.181,275.234 188.318 C 274.891 188.338,276.313 189.241,278.396 190.324 M177.344 193.796 C 177.344 194.251,177.029 194.429,176.644 194.191 C 176.260 193.953,175.732 194.313,175.472 194.990 C 174.747 196.880,174.931 197.394,175.867 196.094 C 176.546 195.150,176.604 195.226,176.169 196.484 C 174.243 202.042,174.627 203.275,179.824 208.203 L 184.766 212.891 180.078 207.813 L 175.391 202.734 180.286 207.410 C 183.033 210.033,185.009 212.538,184.788 213.115 C 184.571 213.681,184.740 213.929,185.165 213.666 C 185.590 213.404,185.938 213.561,185.938 214.016 C 185.938 215.522,187.310 214.874,187.759 213.156 C 188.002 212.228,187.669 210.558,187.019 209.445 C 185.894 207.517,185.900 207.723,187.080 211.328 C 187.362 212.188,186.843 211.540,185.928 209.889 C 185.012 208.237,184.460 206.373,184.701 205.746 C 184.941 205.119,184.840 204.791,184.475 205.016 C 183.520 205.606,180.958 199.542,181.673 198.385 C 182.046 197.782,181.952 197.613,181.426 197.938 C 180.926 198.247,180.171 197.335,179.586 195.715 C 178.645 193.115,177.344 192.001,177.344 193.796 M108.166 203.198 C 107.478 204.527,107.055 205.753,107.224 205.922 C 107.394 206.092,108.117 205.004,108.832 203.506 C 110.438 200.137,109.882 199.879,108.166 203.198 M185.993 201.172 C 185.993 201.602,186.495 202.832,187.109 203.906 C 187.723 204.980,188.226 205.508,188.226 205.078 C 188.226 204.648,187.723 203.418,187.109 202.344 C 186.495 201.270,185.993 200.742,185.993 201.172 M291.168 203.506 C 291.883 205.004,292.606 206.092,292.776 205.922 C 293.133 205.565,290.762 200.781,290.227 200.781 C 290.030 200.781,290.454 202.007,291.168 203.506 M22.321 205.915 C 22.034 207.060,21.950 208.148,22.134 208.332 C 22.318 208.516,22.704 207.730,22.991 206.585 C 23.278 205.440,23.363 204.352,23.179 204.168 C 22.995 203.984,22.609 204.770,22.321 205.915 M104.885 216.016 C 104.893 217.734,105.053 218.346,105.240 217.374 C 105.427 216.402,105.420 214.996,105.224 214.249 C 105.029 213.502,104.876 214.297,104.885 216.016 M294.728 216.016 C 294.737 217.734,294.897 218.346,295.084 217.374 C 295.271 216.402,295.264 214.996,295.068 214.249 C 294.872 213.502,294.720 214.297,294.728 216.016 M294.744 225.781 C 294.744 227.715,294.896 228.506,295.083 227.539 C 295.269 226.572,295.269 224.990,295.083 224.023 C 294.896 223.057,294.744 223.848,294.744 225.781 M104.900 226.563 C 104.900 228.496,105.053 229.287,105.239 228.320 C 105.425 227.354,105.425 225.771,105.239 224.805 C 105.053 223.838,104.900 224.629,104.900 226.563 M196.149 223.828 C 196.149 224.258,196.652 225.488,197.266 226.563 C 197.880 227.637,198.382 228.164,198.382 227.734 C 198.382 227.305,197.880 226.074,197.266 225.000 C 196.652 223.926,196.149 223.398,196.149 223.828 M15.822 241.016 C 15.831 242.734,15.991 243.346,16.178 242.374 C 16.364 241.402,16.357 239.996,16.162 239.249 C 15.966 238.502,15.813 239.297,15.822 241.016 M383.791 241.016 C 383.799 242.734,383.959 243.346,384.146 242.374 C 384.333 241.402,384.326 239.996,384.131 239.249 C 383.935 238.502,383.782 239.297,383.791 241.016 M15.158 257.813 C 15.158 264.473,15.278 267.197,15.424 263.867 C 15.571 260.537,15.571 255.088,15.424 251.758 C 15.278 248.428,15.158 251.152,15.158 257.813 M384.689 257.813 C 384.689 264.473,384.809 267.197,384.956 263.867 C 385.102 260.537,385.102 255.088,384.956 251.758 C 384.809 248.428,384.689 251.152,384.689 257.813 M119.141 267.188 C 119.807 268.477,120.528 269.531,120.743 269.531 C 120.958 269.531,120.588 268.477,119.922 267.188 C 119.255 265.898,118.534 264.844,118.319 264.844 C 118.104 264.844,118.474 265.898,119.141 267.188 M15.806 274.219 C 15.806 275.723,15.967 276.338,16.164 275.586 C 16.360 274.834,16.360 273.604,16.164 272.852 C 15.967 272.100,15.806 272.715,15.806 274.219 M383.775 274.219 C 383.775 275.723,383.936 276.338,384.132 275.586 C 384.329 274.834,384.329 273.604,384.132 272.852 C 383.936 272.100,383.775 272.715,383.775 274.219 M266.748 287.243 C 265.545 288.821,264.959 289.865,265.447 289.563 C 266.447 288.945,269.829 284.375,269.287 284.375 C 269.093 284.375,267.951 285.666,266.748 287.243 M144.922 302.344 C 146.600 304.063,148.149 305.469,148.364 305.469 C 148.579 305.469,147.381 304.063,145.703 302.344 C 144.025 300.625,142.476 299.219,142.261 299.219 C 142.046 299.219,143.244 300.625,144.922 302.344 M153.906 312.109 C 156.674 314.902,158.763 317.188,158.549 317.188 C 158.334 317.188,155.893 314.902,153.125 312.109 C 150.357 309.316,148.268 307.031,148.483 307.031 C 148.697 307.031,151.138 309.316,153.906 312.109 M50.781 331.134 C 51.426 331.782,50.195 330.869,48.047 329.105 C 45.898 327.341,41.504 323.159,38.281 319.812 C 33.529 314.876,34.045 315.260,41.016 321.841 C 45.742 326.304,50.137 330.486,50.781 331.134 M361.699 319.980 C 358.487 323.235,354.102 327.357,351.953 329.141 C 349.805 330.925,352.266 328.278,357.422 323.259 C 367.990 312.971,370.561 311.000,361.699 319.980 M171.875 328.742 C 171.875 329.247,163.096 321.481,160.938 319.066 C 159.863 317.865,161.885 319.478,165.430 322.652 C 168.975 325.826,171.875 328.567,171.875 328.742 M344.531 334.712 C 344.531 334.898,343.389 335.806,341.992 336.730 L 339.453 338.410 341.797 336.397 C 344.200 334.331,344.531 334.128,344.531 334.712 M188.281 340.382 C 188.281 340.946,183.526 337.955,182.557 336.781 C 182.053 336.171,183.135 336.657,184.961 337.862 C 186.787 339.066,188.281 340.200,188.281 340.382 M217.343 336.914 C 216.894 337.451,215.357 338.561,213.927 339.379 C 210.863 341.134,211.374 340.401,215.003 337.835 C 217.956 335.747,218.498 335.534,217.343 336.914 M65.234 341.001 L 66.797 342.274 65.234 341.507 C 64.375 341.085,62.969 340.167,62.109 339.467 L 60.547 338.195 62.109 338.962 C 62.969 339.384,64.375 340.302,65.234 341.001 M146.289 359.132 C 147.041 359.329,148.271 359.329,149.023 359.132 C 149.775 358.936,149.160 358.775,147.656 358.775 C 146.152 358.775,145.537 358.936,146.289 359.132 " stroke="none" fill="#000000" fill-rule="evenodd"></path></g></svg>